<svg width="232" height="24" viewBox="0 0 232 24" fill="none" xmlns="http://www.w3.org/2000/svg">
<path d="M72.1096 0.519856C72.2165 0.519856 72.3078 0.519856 72.398 0.519856C73.5289 0.519856 74.6599 0.524312 75.7909 0.5154C75.9935 0.514286 76.0959 0.562187 76.1771 0.764931C77.7255 4.65494 79.2405 8.55721 80.5029 12.5519C80.5385 12.6633 80.5875 12.7703 80.691 12.8705V0.542135H83.9815V23.8221H83.6876C82.5934 23.8221 81.4991 23.8132 80.406 23.8287C80.1288 23.8332 80.0175 23.773 79.9563 23.4745C79.2851 20.2239 78.4291 17.019 77.4472 13.8486C76.855 11.9337 76.2194 10.0321 75.5994 8.1261C75.5693 8.03364 75.5126 7.95121 75.4681 7.86432C75.4424 7.87323 75.4168 7.88326 75.3912 7.89217V23.7976H72.1074V0.519856H72.1096Z" fill="white"/>
<path d="M21.8077 23.8275H18.4816V18.6252H15.4438V23.8275H12.1733C12.1733 23.4911 12.1622 23.1703 12.1755 22.8494C12.269 20.5457 12.3169 18.2376 12.4783 15.9383C12.6531 13.4374 12.8813 10.9365 13.1852 8.44791C13.4935 5.91584 13.9254 3.39825 14.2939 0.87397C14.3339 0.602159 14.4174 0.492989 14.7235 0.497445C16.2341 0.517497 17.7447 0.506357 19.2563 0.506357H19.5869C21.0084 8.2162 21.6641 15.9795 21.8099 23.8286L21.8077 23.8275ZM16.607 3.70459C16.3254 7.62691 16.046 11.5258 15.7655 15.4348H18.1766C17.8927 11.5136 17.61 7.61466 17.3261 3.70459H16.607Z" fill="white"/>
<path d="M0 23.8755V0.549854C0.0701291 0.542056 0.140258 0.527574 0.210387 0.527574C1.47048 0.527574 2.73169 0.503066 3.99068 0.540942C5.14057 0.575475 6.2003 0.901871 7.02849 1.76075C7.74091 2.49932 8.0526 3.41946 8.16725 4.41313C8.21957 4.87098 8.22625 5.33662 8.22736 5.79892C8.23182 10.1624 8.22959 14.5258 8.2307 18.8893C8.2307 19.5866 8.15835 20.2728 7.95575 20.9446C7.45594 22.6011 6.32386 23.5847 4.63408 23.7496C3.11017 23.8977 1.56622 23.8409 0 23.8743L0 23.8755ZM2.80294 3.26462V21.0883C3.16694 21.0883 3.5187 21.1128 3.86489 21.0827C4.41256 21.0337 4.73872 20.704 4.84002 20.1726C4.8979 19.8752 4.93464 19.5677 4.93464 19.2647C4.9402 14.5303 4.93909 9.79476 4.93686 5.06035C4.93686 4.82085 4.91905 4.578 4.88232 4.34072C4.78213 3.68793 4.40589 3.31029 3.7981 3.26796C3.4764 3.24568 3.15135 3.26351 2.80182 3.26351L2.80294 3.26462Z" fill="white"/>
<path d="M60.5367 23.7942C60.4299 23.7998 60.3397 23.8076 60.2484 23.8076C58.6544 23.8076 57.0603 23.8176 55.4652 23.8053C54.2685 23.7953 53.1776 23.4767 52.306 22.6045C51.6103 21.9082 51.2619 21.0382 51.125 20.0846C51.0493 19.5555 51.017 19.0152 51.0159 18.4805C51.007 14.1805 51.0092 9.8817 51.0137 5.58174C51.0137 4.7173 51.1138 3.86399 51.4422 3.05301C52.0144 1.6416 53.0808 0.850676 54.5591 0.596689C54.9487 0.52985 55.3505 0.512026 55.7479 0.508684C57.1193 0.498659 58.4919 0.504228 59.8633 0.504228C59.9724 0.504228 60.0803 0.504228 60.2072 0.504228V3.67684C60.0904 3.67684 59.9824 3.67684 59.8744 3.67684C58.1223 3.67684 56.3702 3.68241 54.6192 3.67127C54.3598 3.67016 54.2964 3.74702 54.2975 3.99989C54.3075 6.08526 54.3086 8.16952 54.2975 10.2549C54.2964 10.52 54.381 10.5768 54.6281 10.5746C55.9906 10.5646 57.3531 10.569 58.7156 10.569C58.8247 10.569 58.9327 10.569 59.0518 10.569V13.7416C58.9282 13.7416 58.8191 13.7416 58.71 13.7416C57.3386 13.7416 55.9661 13.7461 54.5947 13.7372C54.3632 13.7361 54.2986 13.804 54.2986 14.0346C54.3064 16.1378 54.3075 18.241 54.2986 20.3453C54.2986 20.5804 54.3698 20.6405 54.5969 20.6394C56.4604 20.6316 58.3227 20.6349 60.1861 20.6349H60.5367V23.7931V23.7942Z" fill="white"/>
<path d="M34.1942 0.540055V3.67813C34.0785 3.67813 33.9694 3.67813 33.8603 3.67813C32.6369 3.68482 31.4136 3.67925 30.1913 3.70375C29.5813 3.71601 29.1383 4.03238 28.9824 4.62613C28.8644 5.07729 28.7954 5.55296 28.782 6.01972C28.7598 6.86077 28.7843 7.70517 28.811 8.54622C28.8333 9.23577 29.1138 9.78385 29.7794 10.069C30.7646 10.4923 31.7497 10.9145 32.7416 11.3223C34.1018 11.8815 34.8287 12.9074 34.8666 14.3556C34.9122 16.1235 34.9089 17.8936 34.861 19.6604C34.8332 20.683 34.5827 21.6778 34.005 22.5512C33.4607 23.3733 32.6915 23.8077 31.6952 23.8088C29.7115 23.81 27.729 23.8088 25.7454 23.8088C25.6262 23.8088 25.4893 23.8334 25.4893 23.6451C25.4893 22.6659 25.4893 21.6867 25.4893 20.6719H25.811C27.1457 20.6719 28.4804 20.6719 29.8151 20.6719C29.972 20.6719 30.1323 20.6763 30.2859 20.6507C31.1776 20.5014 31.5416 20.1305 31.5783 19.2037C31.6195 18.1398 31.6362 17.0726 31.5883 16.0099C31.546 15.0619 31.0629 14.34 30.1813 13.9423C29.4655 13.6193 28.7164 13.3675 28.0117 13.0233C27.4251 12.737 26.8518 12.4039 26.3286 12.0163C25.7843 11.6141 25.5728 10.9769 25.5439 10.3286C25.4515 8.2655 25.3947 6.19907 25.5973 4.13932C25.683 3.26819 25.9324 2.43382 26.4478 1.70305C26.981 0.947771 27.7067 0.540055 28.634 0.535599C30.4318 0.526687 32.2295 0.531143 34.0284 0.531143C34.074 0.531143 34.1197 0.537827 34.1953 0.543397L34.1942 0.540055Z" fill="white"/>
<path d="M38.0989 23.7853V20.6718C38.2058 20.6718 38.3049 20.6718 38.4028 20.6718C39.7564 20.6718 41.11 20.6874 42.4625 20.6606C42.8209 20.6539 43.1961 20.5604 43.5311 20.4267C43.9597 20.2562 44.1378 19.8552 44.1456 19.4152C44.1667 18.2221 44.2191 17.0246 44.1489 15.836C44.0977 14.9604 43.5835 14.3009 42.7619 13.9355C41.8581 13.5334 40.9386 13.1691 40.0403 12.7558C39.5282 12.5197 39.0373 12.2289 38.6733 11.7778C38.2804 11.2887 38.1123 10.7083 38.1056 10.0979C38.0878 8.3467 38.0689 6.59553 38.1134 4.84547C38.1412 3.76713 38.3683 2.71443 38.9772 1.78648C39.5149 0.966592 40.274 0.534369 41.257 0.531027C43.0825 0.524343 44.9092 0.528799 46.7571 0.528799V3.67802C46.6569 3.67802 46.55 3.67802 46.4432 3.67802C45.34 3.67802 44.2369 3.67245 43.1337 3.67913C42.0451 3.68581 41.5553 4.06345 41.4518 5.13956C41.3571 6.12209 41.3916 7.11798 41.3738 8.1072C41.3705 8.2832 41.3805 8.45921 41.3983 8.63411C41.4685 9.33591 41.8013 9.84723 42.4714 10.1235C43.4109 10.5123 44.3426 10.9189 45.2844 11.3021C46.6157 11.8435 47.4016 12.8138 47.4394 14.2519C47.4895 16.139 47.4762 18.0294 47.425 19.9176C47.4005 20.7976 47.14 21.6487 46.6747 22.4185C46.1404 23.3019 45.369 23.7987 44.3259 23.8032C42.2955 23.8132 40.2662 23.8065 38.2358 23.8054C38.2002 23.8054 38.1646 23.7954 38.0978 23.7842L38.0989 23.7853Z" fill="white"/>
<path d="M64.6299 0.524414H67.8859V23.7899H64.6299V0.524414Z" fill="white"/>
<path d="M93.7425 4.10239C93.7002 4.68946 93.6802 5.27207 93.6122 5.85022C93.4731 7.02881 92.8197 7.73619 91.652 7.99909C90.7893 8.19292 89.921 8.18067 89.0661 7.96678C87.9374 7.68495 87.3652 6.89402 87.2372 5.78561C87.0992 4.5892 87.0802 3.38499 87.2639 2.18858C87.4409 1.02892 88.121 0.337143 89.2709 0.117689C90.1169 -0.0438381 90.9652 -0.0471801 91.8023 0.172274C92.8631 0.450768 93.482 1.17597 93.6111 2.30554C93.679 2.90152 93.7002 3.50307 93.7425 4.10128V4.10239ZM87.7904 4.079C87.8227 4.6371 87.8338 5.20189 87.8917 5.76222C87.9819 6.63781 88.4561 7.15915 89.311 7.35521C89.95 7.50225 90.6 7.51674 91.2434 7.41648C92.3622 7.24158 92.8653 6.80602 92.9655 5.68313C93.0623 4.60145 93.059 3.4975 92.9633 2.41583C92.8687 1.34752 92.38 0.924209 91.3169 0.735947C90.6657 0.621207 90.0045 0.630119 89.3566 0.77048C88.4472 0.967654 87.9841 1.48231 87.8906 2.41137C87.8349 2.96279 87.8238 3.51867 87.7915 4.08011L87.7904 4.079Z" fill="white"/>
<path d="M88.6143 6.32049V1.73535C88.995 1.75763 89.3823 1.74649 89.7564 1.8111C90.0803 1.8668 90.2718 2.1297 90.2762 2.45275C90.2918 3.49878 90.2951 4.54592 90.274 5.59195C90.2662 5.96179 90.018 6.20909 89.6439 6.26256C89.3178 6.30935 88.9827 6.30155 88.6143 6.31937V6.32049ZM89.2755 2.31685V5.74568C89.5393 5.78689 89.6551 5.66881 89.6562 5.44267C89.6606 4.49802 89.6606 3.55225 89.6562 2.6076C89.6562 2.36698 89.5393 2.24778 89.2755 2.31685Z" fill="white"/>
<path d="M90.7822 1.75966C91.1162 1.75966 91.4312 1.73961 91.7418 1.76523C92.0779 1.79197 92.3351 1.9858 92.3818 2.32222C92.4319 2.68426 92.4419 3.05968 92.3985 3.42172C92.3752 3.61778 92.2071 3.79602 92.1002 3.98873C92.3518 4.11239 92.4553 4.3764 92.4564 4.69388C92.4564 4.97126 92.4642 5.24976 92.4475 5.52602C92.4208 5.94488 92.2015 6.20667 91.7919 6.26459C91.4668 6.31027 91.1329 6.30024 90.7833 6.31584V1.75966H90.7822ZM91.4056 5.73322C91.6806 5.80006 91.8052 5.68644 91.8152 5.45027C91.8275 5.15618 91.8219 4.86098 91.8164 4.56689C91.8152 4.49559 91.8086 4.40091 91.764 4.35746C91.6984 4.29396 91.6004 4.25497 91.5102 4.2327C91.4891 4.22713 91.4112 4.33073 91.4101 4.3842C91.4023 4.83313 91.4056 5.28318 91.4056 5.73322ZM91.4056 2.32334C91.4056 2.68983 91.3978 3.05856 91.4112 3.42617C91.4145 3.51418 91.4757 3.66568 91.5292 3.67459C91.6895 3.70021 91.7818 3.59884 91.7818 3.42617C91.7818 3.13877 91.7863 2.85136 91.783 2.56507C91.7807 2.33113 91.6583 2.2565 91.4056 2.32445V2.32334Z" fill="white"/>
<path d="M199.831 1.45345C199.993 1.4477 200.301 1.44482 200.754 1.44482C201.207 1.44482 201.524 1.4477 201.686 1.45345C202.263 1.46495 202.716 1.62023 203.045 1.92071C203.375 2.2212 203.541 2.6367 203.541 3.1701C203.541 3.54966 203.457 3.88465 203.289 4.17651C203.122 4.46837 202.885 4.69409 202.581 4.85224C202.275 5.01039 201.93 5.08947 201.544 5.08947H200.999V7.11091H199.832V1.45345H199.831ZM201.493 4.08737C201.767 4.08737 201.981 4.00829 202.135 3.84871C202.288 3.69056 202.366 3.4749 202.366 3.20317C202.366 2.70427 202.095 2.45555 201.552 2.45555H200.999V4.08737H201.494H201.493Z" fill="white"/>
<path d="M204.389 1.45345C204.557 1.4477 204.871 1.44482 205.329 1.44482C205.788 1.44482 206.11 1.4477 206.278 1.45345C206.916 1.47645 207.392 1.63317 207.705 1.92503C208.019 2.21688 208.176 2.60938 208.176 3.10109C208.176 3.5209 208.07 3.87602 207.86 4.16788C207.65 4.45974 207.357 4.65096 206.983 4.74154C207.1 4.83786 207.22 4.97013 207.343 5.13691C207.467 5.30369 207.637 5.56248 207.855 5.91472C208.083 6.28278 208.316 6.68247 208.55 7.11235H207.14L206.191 5.32813C206.091 5.14122 206 5.02333 205.919 4.97588C205.838 4.92844 205.716 4.904 205.554 4.904V7.11235H204.388V1.45345H204.389ZM206.076 3.95941C206.362 3.95941 206.586 3.88609 206.752 3.738C206.917 3.59135 207 3.39295 207 3.14278C207 2.91562 206.927 2.74309 206.781 2.6252C206.635 2.50587 206.423 2.44692 206.143 2.44692H205.555V3.95941H206.075H206.076Z" fill="white"/>
<path d="M210.196 6.85652C209.777 6.61354 209.451 6.26992 209.219 5.82854C208.986 5.38716 208.871 4.87964 208.871 4.30742C208.871 3.73521 208.986 3.2205 209.215 2.77768C209.443 2.3363 209.769 1.99268 210.188 1.7497C210.607 1.50673 211.094 1.38452 211.648 1.38452C212.202 1.38452 212.68 1.50529 213.099 1.74539C213.518 1.98549 213.843 2.3248 214.072 2.76043C214.301 3.19606 214.416 3.7007 214.416 4.27292C214.416 4.84513 214.301 5.3699 214.072 5.8156C213.842 6.25986 213.518 6.60635 213.099 6.8522C212.68 7.09806 212.196 7.2217 211.648 7.2217C211.099 7.2217 210.615 7.09949 210.196 6.85652ZM212.751 5.64164C213.028 5.30808 213.167 4.86239 213.167 4.30742C213.167 3.94512 213.105 3.62306 212.978 3.34271C212.852 3.06235 212.673 2.84669 212.442 2.69717C212.209 2.54764 211.945 2.47144 211.649 2.47144C211.354 2.47144 211.088 2.54621 210.857 2.69717C210.624 2.84669 210.445 3.06235 210.32 3.34271C210.195 3.62306 210.131 3.94512 210.131 4.30742C210.131 4.66973 210.193 4.99035 210.32 5.26783C210.446 5.54531 210.624 5.76097 210.852 5.91337C211.081 6.06577 211.348 6.1434 211.649 6.1434C212.108 6.1434 212.476 5.97663 212.753 5.64164H212.751Z" fill="white"/>
<path d="M214.561 7.06051L214.88 6.03253C215.048 6.12311 215.197 6.16912 215.325 6.16912C215.604 6.16912 215.744 5.99372 215.744 5.64291V1.45337H216.918V5.74355C216.918 6.20219 216.785 6.56593 216.519 6.83479C216.254 7.10364 215.897 7.23879 215.45 7.23879C215.124 7.23879 214.829 7.17984 214.561 7.06051Z" fill="white"/>
<path d="M218.094 1.45337H221.492V2.52448H219.294V3.65453H221.115V4.69113H219.294V6.0426H221.492V7.11371H218.094V1.45337Z" fill="white"/>
<path d="M222.969 6.49125C222.465 6.00386 222.214 5.31663 222.214 4.42667C222.214 3.81995 222.333 3.28512 222.57 2.82073C222.808 2.35634 223.146 1.99835 223.582 1.74531C224.018 1.49371 224.522 1.36719 225.093 1.36719C225.557 1.36719 226.005 1.45201 226.436 1.62167L226.209 2.71721C225.828 2.54181 225.459 2.45411 225.101 2.45411C224.591 2.45411 224.189 2.62232 223.893 2.96019C223.596 3.29662 223.448 3.74663 223.448 4.30734C223.448 4.86806 223.604 5.32382 223.918 5.64155C224.232 5.95929 224.665 6.11744 225.219 6.11744C225.583 6.11744 225.935 6.0585 226.277 5.93916L226.462 6.98439C226.053 7.14254 225.588 7.22162 225.069 7.22162C224.174 7.22162 223.474 6.97864 222.971 6.49125H222.969Z" fill="white"/>
<path d="M228.635 2.52448H227.108V1.45337H231.372V2.52448H229.861V7.11227H228.635V2.52448Z" fill="white"/>
<path d="M123.205 10.0239V14.0883C123.205 15.1537 124.057 16.0163 125.11 16.0163L129.248 16.0192C130.301 16.0192 131.153 16.8833 131.153 17.9472V22.0735C131.153 23.1388 130.299 24.0015 129.248 24.0015H125.111C124.059 24.0015 123.207 23.1374 123.207 22.0735V17.9486C123.207 16.8833 122.353 16.0206 121.302 16.0206H117.195C116.142 16.0206 115.29 15.1566 115.29 14.0926V10.0253C115.29 8.95995 114.436 8.09731 113.385 8.09731H109.289C108.231 8.09444 107.376 7.22317 107.385 6.15207L107.415 1.91508C107.422 0.856913 108.272 0.00146484 109.319 0.00146484H113.383C114.435 0.00146484 115.287 0.86554 115.287 1.92946V6.16644C115.287 7.2318 116.141 8.09444 117.192 8.09444H121.299C122.352 8.09444 123.204 7.23036 123.204 6.16644V1.92946C123.204 0.864102 124.057 0.00146484 125.108 0.00146484H129.245C130.298 0.00146484 131.15 0.86554 131.15 1.92946V6.16644C131.15 7.2318 130.296 8.09444 129.245 8.09444H125.108C124.056 8.09444 123.204 8.95851 123.204 10.0224L123.205 10.0239Z" fill="white"/>
<path d="M168.855 23.481L164.462 14.8805C164.299 14.5598 163.972 14.3586 163.616 14.3586H162.13C161.078 14.3586 160.226 15.2226 160.226 16.2866V23.0194C160.226 23.5514 159.8 23.9842 159.273 23.9842H156.455C155.929 23.9842 155.502 23.5528 155.502 23.0194V15.2974C155.502 14.7654 155.928 14.3327 156.455 14.3327H158.32C159.372 14.3327 160.224 13.4686 160.224 12.4047V11.1956C160.224 10.6636 160.65 10.2308 161.177 10.2308H165.368C166.618 10.2136 167.56 9.87717 168.164 9.23738L168.169 9.23163L168.175 9.22731C168.77 8.62922 169.06 7.91179 169.06 7.04197C169.04 5.99242 168.709 5.26493 168.046 4.81349L168.033 4.8063L168.023 4.79911C167.482 4.38792 166.664 4.18089 165.582 4.18089H160.227V8.0987C160.227 8.63066 159.801 9.06341 159.274 9.06341H156.456C155.931 9.06341 155.503 8.63209 155.503 8.0987V0.91293C155.503 0.437042 155.885 0.050293 156.356 0.050293H165.616C167.763 0.050293 169.551 0.599505 170.93 1.68211C172.609 2.93006 173.495 4.72722 173.568 7.02471V7.04772C173.525 10.2265 172.001 12.4737 169.034 13.7346L173.906 22.5694C174.261 23.2121 173.801 24.0043 173.073 24.0043H169.699C169.342 24.0043 169.016 23.803 168.852 23.4824L168.855 23.481Z" fill="white"/>
<path d="M139.663 6.3361V8.74429C139.663 9.27769 140.089 9.70901 140.616 9.70901L148.603 9.70469C149.34 9.70469 149.936 10.3085 149.936 11.0547V12.9842C149.936 13.7303 149.34 14.3342 148.603 14.3342H140.615C140.089 14.3342 139.662 14.7655 139.662 15.2975V17.7445C139.662 18.8098 140.516 19.6725 141.567 19.6725H150.74C151.266 19.6725 151.693 20.1038 151.693 20.6372V23.1963C151.693 23.6406 151.338 23.9986 150.901 23.9986H140.635C140.111 23.9986 139.686 23.5701 139.682 23.0396L139.673 21.589C139.666 20.5279 138.816 19.6725 137.769 19.6725H135.809C135.34 19.6725 134.961 19.2872 134.961 18.8141V5.38001C134.961 4.84805 135.387 4.41529 135.914 4.41529H137.757C138.81 4.41529 139.662 3.55122 139.662 2.4873V0.966181C139.662 0.434221 140.088 0.00146484 140.615 0.00146484H150.74C151.266 0.00146484 151.693 0.432783 151.693 0.966181V3.56416C151.693 4.00698 151.338 4.36641 150.901 4.36641L141.558 4.4081C140.51 4.41242 139.662 5.27505 139.662 6.3361H139.663Z" fill="white"/>
<path d="M109.276 16.019H113.383C114.434 16.019 115.288 16.8831 115.288 17.947V22.0676C115.288 23.1315 114.434 23.9956 113.383 23.9956H109.276C108.225 23.9956 107.371 23.1315 107.371 22.0676V17.947C107.371 16.8831 108.225 16.019 109.276 16.019Z" fill="white"/>
<path d="M194.485 0.00143773C195.143 0.00143773 195.603 0.659917 195.383 1.28677L187.665 23.3588C187.53 23.7441 187.171 24.0014 186.768 24.0014H184.573C184.17 24.0014 183.809 23.7441 183.676 23.3588L175.978 1.28677C175.759 0.659917 176.219 0.00143773 176.876 0.00143773H179.78C180.193 0.00143773 180.56 0.271731 180.686 0.668544L185.698 16.3685L190.653 0.671419C190.78 0.271731 191.146 0 191.561 0H194.485V0.00143773Z" fill="white"/>
</svg>
