<svg width="33" height="30" viewBox="0 0 33 30" fill="none" xmlns="http://www.w3.org/2000/svg">
<g clip-path="url(#clip0_154_182)">
<path d="M6.4259 19.8472C6.4259 22.2712 5.13111 23.3991 3.04585 23.3991H0V6.59912H3.01983C5.10509 6.59912 6.42389 7.70296 6.42389 10.103V19.8472H6.4259ZM3.01983 8.5684H2.42147V21.4318H3.01983C3.69024 21.4318 4.00243 21.0712 4.00243 20.1838V9.79244C4.00443 8.929 3.69224 8.5684 3.01983 8.5684Z" fill="#ECFFF9"/>
<path d="M20.6565 30C20.6405 30 20.6245 30 20.6085 30C8.22095 29.98 8.22095 22.3673 8.22095 15.005V14.9589C8.22095 11.0965 8.22095 7.44841 9.77389 4.6778C11.563 1.48648 15.0051 0 20.6105 0C33 0 33 7.62471 33 14.999C33 19.7289 33 24.1983 30.1242 27.0731C28.155 29.0424 25.0571 30 20.6565 30ZM20.6105 2.41002C14.5228 2.41002 12.7417 4.33322 11.9312 5.77963C10.6964 7.98331 10.6964 11.2167 10.6964 14.9589V15.001C10.6964 22.8441 10.6964 27.576 20.6145 27.592C20.6305 27.592 20.6445 27.592 20.6605 27.592C24.3967 27.592 26.9283 26.8768 28.3972 25.4083C30.5265 23.2808 30.5265 19.4444 30.5265 15.003C30.5265 7.14791 30.5265 2.41002 20.6105 2.41002Z" fill="#ECFFF9"/>
<path d="M20.1202 19.8472C20.1202 22.2712 18.8254 23.3991 16.7402 23.3991H13.6943V6.59912H16.7142C18.7994 6.59912 20.1182 7.70296 20.1182 10.103V19.8472H20.1202ZM16.7162 8.5684H16.1158V21.4318H16.7162C17.3866 21.4318 17.6988 21.0712 17.6988 20.1838V9.79244C17.6988 8.929 17.3866 8.5684 16.7162 8.5684Z" fill="#ECFFF9"/>
<path d="M28.2091 11.7116C28.2091 13.3924 27.6567 14.328 26.5541 14.7106V14.7828C27.7048 15.1434 28.3051 16.1751 28.3051 17.7577V19.8692C28.3051 22.2692 27.0103 23.3971 24.9251 23.3971H21.8812V6.59912H24.853C26.9143 6.59912 28.2091 7.70296 28.2091 10.127V11.7116ZM24.853 8.5684H24.3007V13.7771H24.829C25.5715 13.7771 25.7876 13.4405 25.7876 12.3367V9.79244C25.7876 8.929 25.4994 8.5684 24.853 8.5684ZM24.829 15.7444H24.3007V21.4318H24.9011C25.5715 21.4318 25.8837 21.0712 25.8837 20.1838V17.1367C25.8837 16.151 25.5715 15.7444 24.829 15.7444Z" fill="#ECFFF9"/>
</g>
<defs>
<clipPath id="clip0_154_182">
<rect width="33" height="30" fill="white"/>
</clipPath>
</defs>
</svg>
