<svg width="1213" height="309" viewBox="0 0 1213 309" fill="none" xmlns="http://www.w3.org/2000/svg">
<path d="M933.074 6.70755C934.456 6.70755 935.638 6.70755 936.804 6.70755C951.439 6.70755 966.073 6.76521 980.708 6.64989C983.329 6.63548 984.654 7.2553 985.706 9.87875C1005.74 60.2144 1025.35 110.709 1041.68 162.399C1042.14 163.841 1042.77 165.224 1044.11 166.522V6.99584H1086.69V308.231H1082.89C1068.73 308.231 1054.57 308.116 1040.43 308.318C1036.84 308.375 1035.4 307.597 1034.61 303.734C1025.92 261.672 1014.84 220.201 1002.14 179.178C994.478 154.399 986.253 129.793 978.23 105.13C977.841 103.934 977.107 102.867 976.53 101.743C976.199 101.858 975.868 101.988 975.537 102.103V307.914H933.045V6.70755H933.074Z" fill="#0344DC"/>
<path d="M282.188 308.303H239.149V240.987H199.84V308.303H157.522C157.522 303.95 157.378 299.799 157.55 295.647C158.76 265.838 159.38 235.971 161.468 206.219C163.73 173.859 166.683 141.498 170.615 109.296C174.605 76.5316 180.193 43.9548 184.961 11.2914C185.48 7.77423 186.56 6.3616 190.521 6.41926C210.067 6.67873 229.613 6.53458 249.174 6.53458H253.452C271.846 106.298 280.33 206.753 282.217 308.318L282.188 308.303ZM214.893 47.9188C211.248 98.6724 207.633 149.123 204.003 199.704H235.202C231.529 148.965 227.87 98.5138 224.197 47.9188H214.893Z" fill="#0344DC"/>
<path d="M0 308.923V7.09675C0.907449 6.99585 1.8149 6.80846 2.72235 6.80846C19.0276 6.80846 35.3473 6.49134 51.6382 6.98144C66.5174 7.42829 80.23 11.6517 90.9466 22.7654C100.165 32.3222 104.198 44.2286 105.682 57.0864C106.359 63.0108 106.445 69.0361 106.46 75.0181C106.517 131.48 106.488 187.942 106.503 244.403C106.503 253.427 105.567 262.306 102.945 270.998C96.4777 292.433 81.8289 305.161 59.9637 307.294C40.2446 309.211 20.2664 308.476 0 308.909L0 308.923ZM36.2692 42.225V272.858C40.9792 272.858 45.5309 273.175 50.0105 272.786C57.0973 272.152 61.3176 267.885 62.6284 261.009C63.3774 257.16 63.8527 253.182 63.8527 249.261C63.9247 187.999 63.9103 126.723 63.8815 65.4613C63.8815 62.3621 63.6511 59.2198 63.1757 56.1495C61.8794 47.7025 57.0108 42.816 49.1463 42.2683C44.9835 41.98 40.7776 42.2106 36.2547 42.2106L36.2692 42.225Z" fill="#0344DC"/>
<path d="M783.33 307.871C781.947 307.943 780.781 308.044 779.6 308.044C758.973 308.044 738.347 308.173 717.706 308.015C702.222 307.885 688.106 303.763 676.827 292.476C667.825 283.467 663.316 272.209 661.545 259.87C660.565 253.023 660.148 246.032 660.133 239.113C660.018 183.473 660.047 127.847 660.104 72.2073C660.104 61.0216 661.401 49.98 665.65 39.4862C673.054 21.223 686.853 10.9887 705.981 7.70216C711.022 6.83729 716.222 6.60665 721.364 6.56341C739.11 6.43368 756.87 6.50575 774.616 6.50575C776.027 6.50575 777.425 6.50575 779.067 6.50575V47.5584C777.554 47.5584 776.157 47.5584 774.76 47.5584C752.088 47.5584 729.416 47.6305 706.759 47.4863C703.403 47.4719 702.582 48.4665 702.596 51.7386C702.726 78.7226 702.74 105.692 702.596 132.676C702.582 136.107 703.676 136.842 706.874 136.813C724.504 136.684 742.135 136.741 759.765 136.741C761.177 136.741 762.574 136.741 764.115 136.741V177.794C762.516 177.794 761.105 177.794 759.693 177.794C741.948 177.794 724.188 177.852 706.442 177.736C703.446 177.722 702.61 178.601 702.61 181.585C702.711 208.8 702.726 236.014 702.61 263.243C702.61 266.285 703.532 267.063 706.471 267.049C730.583 266.948 754.681 266.991 778.793 266.991H783.33V307.856V307.871Z" fill="#0344DC"/>
<path d="M442.461 6.96701V47.5728C440.962 47.5728 439.551 47.5728 438.139 47.5728C422.309 47.6593 406.479 47.5872 390.664 47.9043C382.771 48.0629 377.038 52.1566 375.021 59.8396C373.494 65.6775 372.601 71.8325 372.428 77.8722C372.14 88.7552 372.457 99.6814 372.803 110.564C373.091 119.487 376.721 126.579 385.334 130.269C398.082 135.747 410.829 141.21 423.663 146.485C441.265 153.722 450.671 166.997 451.16 185.736C451.751 208.612 451.708 231.517 451.088 254.378C450.728 267.611 447.488 280.483 440.012 291.784C432.968 302.422 423.015 308.044 410.124 308.058C384.456 308.073 358.802 308.058 333.135 308.058C331.593 308.058 329.822 308.375 329.822 305.939C329.822 293.269 329.822 280.598 329.822 267.467H333.984C351.255 267.467 368.525 267.467 385.795 267.467C387.826 267.467 389.9 267.524 391.888 267.193C403.426 265.261 408.136 260.461 408.611 248.468C409.144 234.702 409.36 220.893 408.741 207.142C408.193 194.875 401.942 185.534 390.534 180.388C381.273 176.208 371.579 172.951 362.461 168.496C354.87 164.792 347.452 160.482 340.682 155.466C333.639 150.262 330.902 142.017 330.527 133.628C329.332 106.932 328.597 80.1929 331.219 53.5404C332.328 42.2682 335.554 31.4717 342.223 22.0158C349.123 12.2427 358.514 6.96701 370.513 6.90935C393.775 6.79404 417.038 6.85169 440.314 6.85169C440.905 6.85169 441.495 6.93818 442.475 7.01026L442.461 6.96701Z" fill="#0344DC"/>
<path d="M492.99 307.755V267.467C494.372 267.467 495.654 267.467 496.922 267.467C514.437 267.467 531.952 267.669 549.453 267.323C554.091 267.236 558.945 266.025 563.281 264.296C568.826 262.09 571.131 256.901 571.232 251.207C571.506 235.769 572.183 220.274 571.275 204.893C570.612 193.563 563.958 185.03 553.328 180.302C541.632 175.098 529.734 170.385 518.11 165.037C511.484 161.981 505.132 158.219 500.422 152.381C495.337 146.053 493.162 138.543 493.076 130.644C492.846 107.984 492.601 85.3245 493.177 62.6793C493.537 48.726 496.475 35.1042 504.354 23.0969C511.311 12.4878 521.135 6.89495 533.854 6.8517C557.476 6.76522 581.113 6.82287 605.024 6.82287V47.5728C603.727 47.5728 602.344 47.5728 600.962 47.5728C586.687 47.5728 572.413 47.5007 558.139 47.5872C544.052 47.6737 537.714 52.5602 536.374 66.4847C535.15 79.1983 535.597 92.0849 535.366 104.885C535.323 107.163 535.452 109.44 535.683 111.703C536.59 120.784 540.897 127.401 549.568 130.975C561.725 136.006 573.781 141.267 585.967 146.226C603.194 153.231 613.363 165.787 613.853 184.396C614.501 208.814 614.329 233.275 613.666 257.708C613.349 269.096 609.979 280.108 603.958 290.069C597.044 301.5 587.062 307.928 573.565 307.986C547.293 308.116 521.034 308.029 494.761 308.015C494.3 308.015 493.839 307.885 492.975 307.741L492.99 307.755Z" fill="#0344DC"/>
<path d="M836.293 6.76521H878.425V307.813H836.293V6.76521Z" fill="#0344DC"/>
<path d="M1213 53.0648C1212.45 60.6612 1212.19 68.2 1211.31 75.6812C1209.51 90.9318 1201.06 100.085 1185.95 103.487C1174.79 105.995 1163.55 105.836 1152.49 103.069C1137.88 99.422 1130.48 89.1876 1128.82 74.8451C1127.04 59.3639 1126.79 43.7818 1129.17 28.3006C1131.46 13.295 1140.26 4.34357 1155.14 1.5039C1166.09 -0.586207 1177.06 -0.629451 1187.89 2.21022C1201.62 5.81385 1209.63 15.1977 1211.3 29.8141C1212.18 37.5259 1212.45 45.3097 1213 53.0503V53.0648ZM1135.98 52.762C1136.4 59.9837 1136.54 67.2919 1137.29 74.5424C1138.46 85.8723 1144.6 92.6183 1155.66 95.1553C1163.93 97.058 1172.34 97.2454 1180.66 95.948C1195.14 93.685 1201.65 88.0489 1202.95 73.519C1204.2 59.5225 1204.16 45.2377 1202.92 31.2411C1201.69 17.4176 1195.37 11.94 1181.61 9.50398C1173.19 8.01928 1164.63 8.1346 1156.25 9.95083C1144.48 12.5022 1138.49 19.1617 1137.28 31.1835C1136.56 38.3187 1136.41 45.5115 1136 52.7765L1135.98 52.762Z" fill="#0344DC"/>
<path d="M1146.64 81.7641V22.4338C1151.57 22.7221 1156.58 22.578 1161.42 23.414C1165.61 24.1348 1168.09 27.5366 1168.15 31.7168C1168.35 45.2521 1168.39 58.8018 1168.12 72.337C1168.02 77.1226 1164.8 80.3227 1159.96 81.0146C1155.74 81.62 1151.41 81.5191 1146.64 81.7497V81.7641ZM1155.2 29.9582V74.3262C1158.61 74.8596 1160.11 73.3316 1160.12 70.4055C1160.18 58.1819 1160.18 45.944 1160.12 33.7204C1160.12 30.6069 1158.61 29.0645 1155.2 29.9582Z" fill="#0344DC"/>
<path d="M1174.7 22.7509C1179.02 22.7509 1183.1 22.4915 1187.12 22.823C1191.47 23.169 1194.79 25.6771 1195.4 30.0303C1196.05 34.715 1196.18 39.5727 1195.61 44.2575C1195.31 46.7944 1193.14 49.1007 1191.75 51.5945C1195.01 53.1945 1196.35 56.6107 1196.36 60.7189C1196.36 64.3081 1196.46 67.9117 1196.25 71.4865C1195.9 76.9064 1193.06 80.2938 1187.76 81.0434C1183.56 81.6344 1179.24 81.5046 1174.71 81.7065V22.7509H1174.7ZM1182.77 74.1676C1186.32 75.0325 1187.94 73.5622 1188.07 70.5063C1188.23 66.7009 1188.15 62.8811 1188.08 59.0756C1188.07 58.1531 1187.98 56.9278 1187.4 56.3657C1186.55 55.544 1185.29 55.0395 1184.12 54.7512C1183.85 54.6792 1182.84 56.0197 1182.82 56.7116C1182.72 62.5207 1182.77 68.3442 1182.77 74.1676ZM1182.77 30.0447C1182.77 34.7871 1182.67 39.5583 1182.84 44.3151C1182.88 45.4539 1183.67 47.4142 1184.36 47.5296C1186.44 47.8611 1187.63 46.5494 1187.63 44.3151C1187.63 40.5962 1187.69 36.8772 1187.65 33.1727C1187.62 30.1456 1186.04 29.1798 1182.77 30.0591V30.0447Z" fill="#0344DC"/>
</svg>
