<svg width="111" height="32" viewBox="0 0 111 32" fill="none" xmlns="http://www.w3.org/2000/svg">
<g clip-path="url(#clip0_4043_5196)">
<path d="M1.90484 15.6679C1.94527 17.0248 2.0876 18.3769 2.19596 19.8907C2.64557 19.5851 2.98844 19.3522 3.32969 19.1193C7.99241 15.9218 12.6487 12.7163 17.3195 9.53183C18.3917 8.80081 19.2036 7.866 19.2214 6.55597C19.2408 5.06158 19.0338 3.53483 18.9238 2C18.8219 2.05337 18.7395 2.10351 18.6715 2.14879C16.8262 3.39251 14.9808 4.63622 13.1355 5.87994L12.8896 2.46255L5.85917 7.51504L6.00797 9.5755L10.7192 7.50857L6.08398 10.6413V10.6445C5.24459 11.2122 4.40359 11.7783 3.5642 12.3476C2.40944 13.1304 1.86602 14.2916 1.90646 15.6695L1.90484 15.6679Z" fill="#F3AB37"/>
<path d="M0.100029 24.6553C0.0806215 26.1497 0.287638 27.6765 0.397615 29.2113C0.499506 29.1579 0.581989 29.1078 0.649916 29.0625C2.49527 27.8188 4.34063 26.5751 6.18598 25.3314L6.43181 28.7488L13.4623 23.6963L13.3135 21.6358L8.60225 23.7027L13.2375 20.57V20.5668C14.0769 19.9991 14.9179 19.433 15.7572 18.8637C16.912 18.081 17.4554 16.9197 17.415 15.5418C17.3746 14.1848 17.2322 12.8328 17.1239 11.319C16.6743 11.6246 16.3314 11.8575 15.9901 12.0904C11.3274 15.2879 6.67118 18.4934 2.00037 21.6779C0.931329 22.4105 0.11782 23.3453 0.100029 24.6553Z" fill="white"/>
<path d="M33.2904 9.17602C33.3292 9.21484 33.347 9.26012 33.347 9.31511V10.9163C33.347 10.9712 33.3276 11.0165 33.2904 11.0553C33.2516 11.0942 33.2063 11.1119 33.1513 11.1119H30.2272C30.1722 11.1119 30.1464 11.1394 30.1464 11.1928V20.3565C30.1464 20.4115 30.127 20.4568 30.0898 20.4956C30.0509 20.5344 30.0057 20.5522 29.9507 20.5522H28.039C27.984 20.5522 27.9387 20.5328 27.8999 20.4956C27.8611 20.4568 27.8433 20.4115 27.8433 20.3565V11.1928C27.8433 11.1378 27.8158 11.1119 27.7608 11.1119H24.9192C24.8642 11.1119 24.8189 11.0925 24.7801 11.0553C24.7413 11.0165 24.7235 10.9712 24.7235 10.9163V9.31511C24.7235 9.26012 24.7429 9.21484 24.7801 9.17602C24.8173 9.13882 24.8642 9.11942 24.9192 9.11942H33.1513C33.2063 9.11942 33.2516 9.13882 33.2904 9.17602Z" fill="white"/>
<path d="M38.8524 12.2716C38.9397 12.3152 38.9721 12.3977 38.9511 12.5174L38.6082 14.3789C38.5969 14.5099 38.5209 14.5471 38.3802 14.4937C38.2168 14.4388 38.026 14.4129 37.8076 14.4129C37.7203 14.4129 37.6006 14.4242 37.4486 14.4452C37.0572 14.4776 36.724 14.6215 36.4523 14.8787C36.1806 15.1342 36.0448 15.4755 36.0448 15.8992V20.3581C36.0448 20.4131 36.0253 20.4584 35.9881 20.4972C35.9493 20.536 35.904 20.5538 35.8491 20.5538H33.9374C33.8824 20.5538 33.8371 20.5344 33.7983 20.4972C33.7595 20.4584 33.7417 20.4131 33.7417 20.3581V12.354C33.7417 12.2991 33.7611 12.2538 33.7983 12.215C33.8371 12.1761 33.8824 12.1583 33.9374 12.1583H35.8491C35.904 12.1583 35.9493 12.1778 35.9881 12.215C36.0253 12.2538 36.0448 12.2991 36.0448 12.354V12.9751C36.0448 13.0074 36.0561 13.0301 36.0771 13.0398C36.0981 13.0511 36.1159 13.0463 36.1256 13.0236C36.572 12.3702 37.1704 12.0435 37.9225 12.0435C38.3138 12.0435 38.6244 12.1195 38.854 12.2716H38.8524Z" fill="white"/>
<path d="M44.9529 12.2133C44.9918 12.1745 45.037 12.1567 45.092 12.1567H47.0037C47.0587 12.1567 47.104 12.1761 47.1428 12.2133C47.1816 12.2522 47.1994 12.2974 47.1994 12.3524V20.3565C47.1994 20.4115 47.18 20.4568 47.1428 20.4956C47.104 20.5344 47.0587 20.5522 47.0037 20.5522H45.092C45.037 20.5522 44.9918 20.5328 44.9529 20.4956C44.9141 20.4568 44.8963 20.4115 44.8963 20.3565V19.8018C44.8963 19.7694 44.885 19.75 44.864 19.7452C44.8413 19.7403 44.8203 19.7533 44.7993 19.7856C44.3642 20.3743 43.6882 20.667 42.7744 20.667C41.9464 20.667 41.2655 20.4164 40.7334 19.915C40.1997 19.4136 39.9328 18.7117 39.9328 17.8076V12.3524C39.9328 12.2974 39.9522 12.2522 39.9894 12.2133C40.0266 12.1745 40.0735 12.1567 40.1285 12.1567H42.024C42.079 12.1567 42.1243 12.1761 42.1631 12.2133C42.2019 12.2522 42.2197 12.2974 42.2197 12.3524V17.2367C42.2197 17.6718 42.3361 18.026 42.5706 18.2993C42.8052 18.571 43.1286 18.7069 43.5426 18.7069C43.913 18.7069 44.2171 18.5953 44.458 18.3721C44.6974 18.1489 44.8446 17.8578 44.8996 17.4987V12.3524C44.8996 12.2974 44.919 12.2522 44.9562 12.2133H44.9529Z" fill="white"/>
<path d="M50.3354 20.3565C49.7903 20.1495 49.3682 19.8616 49.069 19.4912C48.7698 19.1209 48.6194 18.702 48.6194 18.233V18.0696C48.6194 18.0146 48.6388 17.9694 48.676 17.9305C48.7148 17.8933 48.7601 17.8739 48.8151 17.8739H50.6281C50.6831 17.8739 50.7284 17.8933 50.7672 17.9305C50.806 17.9694 50.8238 18.0146 50.8238 18.0696V18.0858C50.8238 18.3252 50.9564 18.5289 51.2233 18.6988C51.4901 18.867 51.8249 18.9527 52.2276 18.9527C52.598 18.9527 52.8972 18.8799 53.1268 18.7327C53.3565 18.5856 53.4697 18.4028 53.4697 18.1861C53.4697 17.9904 53.3711 17.8432 53.1754 17.7445C52.9797 17.6459 52.6578 17.5424 52.2114 17.434C51.6987 17.303 51.296 17.1785 51.0033 17.0588C50.3062 16.8194 49.7515 16.5251 49.3375 16.1774C48.9234 15.8297 48.7164 15.3283 48.7164 14.6749C48.7164 13.8695 49.0302 13.229 49.6561 12.7551C50.282 12.2813 51.1117 12.0451 52.1467 12.0451C52.8438 12.0451 53.4535 12.1567 53.9759 12.3799C54.4983 12.6031 54.9043 12.9169 55.1922 13.3196C55.48 13.7223 55.6256 14.18 55.6256 14.6911C55.6256 14.7461 55.6062 14.7913 55.569 14.8302C55.5302 14.869 55.4849 14.8868 55.4299 14.8868H53.6816C53.6266 14.8868 53.5813 14.8673 53.5425 14.8302C53.5037 14.7913 53.4859 14.7461 53.4859 14.6911C53.4859 14.4517 53.363 14.2495 53.1188 14.0862C52.8745 13.9228 52.5495 13.842 52.1467 13.842C51.7877 13.842 51.4933 13.9067 51.2653 14.0377C51.0373 14.1687 50.9224 14.3482 50.9224 14.5762C50.9224 14.8043 51.034 14.9579 51.2572 15.0663C51.4804 15.1746 51.854 15.2895 52.3764 15.4091C52.4961 15.4415 52.6319 15.4771 52.7856 15.5159C52.9376 15.5547 53.101 15.6 53.2756 15.655C54.0487 15.883 54.6584 16.1774 55.1048 16.5364C55.5512 16.8955 55.7744 17.4179 55.7744 18.1052C55.7744 18.9106 55.4558 19.5398 54.8185 19.9926C54.1813 20.4438 53.3242 20.6703 52.2454 20.6703C51.516 20.6703 50.8788 20.5668 50.3337 20.3597L50.3354 20.3565Z" fill="white"/>
<path d="M61.8426 13.9455C61.8038 13.9843 61.7585 14.0021 61.7035 14.0021H60.1347C60.0797 14.0021 60.0538 14.0296 60.0538 14.083V17.5456C60.0538 17.9047 60.1282 18.1715 60.2738 18.3462C60.421 18.5209 60.6571 18.6082 60.9838 18.6082H61.5223C61.5773 18.6082 61.6226 18.6276 61.6614 18.6648C61.7003 18.7036 61.718 18.7489 61.718 18.8039V20.3549C61.718 20.4746 61.6533 20.5457 61.5223 20.5668C61.0646 20.5878 60.738 20.5991 60.5423 20.5991C59.6382 20.5991 58.9638 20.4503 58.5174 20.1495C58.071 19.8503 57.8413 19.2858 57.8316 18.4594V14.0813C57.8316 14.0263 57.8041 14.0005 57.7492 14.0005H56.8176C56.7626 14.0005 56.7173 13.9811 56.6785 13.9439C56.6397 13.905 56.6219 13.8598 56.6219 13.8048V12.3508C56.6219 12.2958 56.6413 12.2505 56.6785 12.2117C56.7173 12.1729 56.7626 12.1551 56.8176 12.1551H57.7492C57.8041 12.1551 57.8316 12.1276 57.8316 12.0742V10.1302C57.8316 10.0752 57.851 10.03 57.8882 9.99115C57.9254 9.95233 57.9723 9.93454 58.0273 9.93454H59.8565C59.9115 9.93454 59.9568 9.95395 59.9956 9.99115C60.0344 10.03 60.0522 10.0752 60.0522 10.1302V12.0742C60.0522 12.1292 60.0797 12.1551 60.1331 12.1551H61.7019C61.7569 12.1551 61.8021 12.1745 61.841 12.2117C61.8798 12.2505 61.8976 12.2958 61.8976 12.3508V13.8048C61.8976 13.8598 61.8782 13.905 61.841 13.9439L61.8426 13.9455Z" fill="white"/>
<path d="M71.464 9.17602C71.5012 9.21484 71.5206 9.26012 71.5206 9.31511V10.9163C71.5206 10.9712 71.5012 11.0165 71.464 11.0553C71.4252 11.0942 71.3799 11.1119 71.3249 11.1119H68.4008C68.3458 11.1119 68.3199 11.1394 68.3199 11.1928V20.3565C68.3199 20.4115 68.3005 20.4568 68.2633 20.4956C68.2245 20.5344 68.1792 20.5522 68.1242 20.5522H66.2126C66.1576 20.5522 66.1123 20.5328 66.0735 20.4956C66.0347 20.4568 66.0169 20.4115 66.0169 20.3565V11.1928C66.0169 11.1378 65.9894 11.1119 65.936 11.1119H63.0944C63.0394 11.1119 62.9941 11.0925 62.9553 11.0553C62.9165 11.0165 62.8987 10.9712 62.8987 10.9163V9.31511C62.8987 9.26012 62.9181 9.21484 62.9553 9.17602C62.9941 9.13882 63.0394 9.11942 63.0944 9.11942H71.3265C71.3815 9.11942 71.4268 9.13882 71.4656 9.17602H71.464Z" fill="#F3AB37"/>
<path d="M72.8289 19.9651C72.1755 19.4864 71.7291 18.833 71.4898 18.0049C71.3377 17.4939 71.2617 16.9375 71.2617 16.3391C71.2617 15.697 71.3377 15.1197 71.4898 14.607C71.7404 13.8015 72.1917 13.1692 72.8451 12.7115C73.4985 12.2538 74.2829 12.0257 75.1966 12.0257C76.1104 12.0257 76.8512 12.2522 77.4835 12.7034C78.1143 13.1546 78.5623 13.7838 78.8227 14.5908C78.9973 15.1358 79.0847 15.7067 79.0847 16.3068C79.0847 16.9068 79.0087 17.4454 78.8566 17.9564C78.6173 18.8055 78.1725 19.4735 77.5256 19.957C76.877 20.4422 76.0959 20.6832 75.1821 20.6832C74.2683 20.6832 73.4839 20.4439 72.8305 19.9651H72.8289ZM76.0959 18.3802C76.3466 18.1618 76.5261 17.8626 76.6344 17.4809C76.7218 17.1332 76.7654 16.7515 76.7654 16.3375C76.7654 15.8798 76.7218 15.4933 76.6344 15.1779C76.5148 14.8075 76.3288 14.5196 76.0797 14.3126C75.829 14.1056 75.525 14.0021 75.1643 14.0021C74.8036 14.0021 74.4866 14.1056 74.2408 14.3126C73.9966 14.5196 73.8187 14.8075 73.7103 15.1779C73.623 15.4399 73.5793 15.8264 73.5793 16.3375C73.5793 16.8486 73.6165 17.2092 73.6942 17.4809C73.8025 17.8626 73.9853 18.1618 74.2408 18.3802C74.4963 18.5985 74.8101 18.7069 75.1805 18.7069C75.5508 18.7069 75.8452 18.5985 76.0959 18.3802Z" fill="#F3AB37"/>
<path d="M88.3633 16.3715C88.3633 17.1235 88.2598 17.8028 88.0528 18.4125C87.8021 19.1096 87.4075 19.6627 86.8689 20.0703C86.3304 20.4778 85.6624 20.6832 84.8683 20.6832C84.0742 20.6832 83.4742 20.4115 83.0391 19.8665C83.0165 19.8341 82.9955 19.8228 82.9744 19.8341C82.9518 19.8454 82.9421 19.8665 82.9421 19.8988V23.3938C82.9421 23.4488 82.9227 23.4941 82.8855 23.5329C82.8467 23.5717 82.8014 23.5895 82.7464 23.5895H80.8347C80.7797 23.5895 80.7345 23.5701 80.6956 23.5329C80.6568 23.4941 80.639 23.4488 80.639 23.3938V12.3508C80.639 12.2958 80.6584 12.2505 80.6956 12.2117C80.7328 12.1729 80.7797 12.1551 80.8347 12.1551H82.7464C82.8014 12.1551 82.8467 12.1745 82.8855 12.2117C82.9243 12.2505 82.9421 12.2958 82.9421 12.3508V12.8894C82.9421 12.9217 82.9534 12.9411 82.9744 12.946C82.9955 12.9525 83.0181 12.9428 83.0391 12.9217C83.4968 12.3233 84.1276 12.0241 84.9346 12.0241C85.6867 12.0241 86.3368 12.2344 86.8867 12.6533C87.4366 13.0721 87.8312 13.6576 88.0706 14.4097C88.2663 14.9644 88.3649 15.6178 88.3649 16.3698L88.3633 16.3715ZM85.9778 16.3391C85.9778 15.6534 85.863 15.1083 85.6349 14.7056C85.3842 14.2382 84.9815 14.0037 84.4268 14.0037C83.9254 14.0037 83.5502 14.2382 83.2995 14.7056C83.0715 15.097 82.9566 15.6485 82.9566 16.3553C82.9566 17.062 83.0763 17.6508 83.3157 18.0535C83.5664 18.4885 83.9367 18.7069 84.4268 18.7069C84.9168 18.7069 85.2985 18.495 85.5702 18.0696C85.8419 17.6443 85.9778 17.0685 85.9778 16.3375V16.3391Z" fill="#F3AB37"/>
<path d="M94.8066 12.2133C94.8455 12.1745 94.8907 12.1567 94.9457 12.1567H96.8574C96.9124 12.1567 96.9577 12.1761 96.9965 12.2133C97.0353 12.2522 97.0531 12.2974 97.0531 12.3524V20.3565C97.0531 20.4115 97.0337 20.4568 96.9965 20.4956C96.9593 20.5344 96.9124 20.5522 96.8574 20.5522H94.9457C94.8907 20.5522 94.8455 20.5328 94.8066 20.4956C94.7678 20.4568 94.75 20.4115 94.75 20.3565V19.8018C94.75 19.7694 94.7387 19.75 94.7177 19.7452C94.6951 19.7403 94.674 19.7533 94.653 19.7856C94.2179 20.3743 93.5419 20.667 92.6281 20.667C91.8001 20.667 91.1192 20.4164 90.5871 19.915C90.0534 19.4136 89.7865 18.7117 89.7865 17.8076V12.3524C89.7865 12.2974 89.8059 12.2522 89.8431 12.2133C89.8819 12.1745 89.9272 12.1567 89.9822 12.1567H91.8777C91.9327 12.1567 91.978 12.1761 92.0168 12.2133C92.054 12.2522 92.0734 12.2974 92.0734 12.3524V17.2367C92.0734 17.6718 92.1898 18.026 92.4243 18.2993C92.6588 18.571 92.9823 18.7069 93.3963 18.7069C93.7667 18.7069 94.0708 18.5953 94.3118 18.3721C94.5511 18.1489 94.6983 17.8578 94.7533 17.4987V12.3524C94.7533 12.2974 94.7727 12.2522 94.8099 12.2133H94.8066Z" fill="#F3AB37"/>
<path d="M106.544 16.3715C106.544 17.1235 106.44 17.8028 106.233 18.4125C105.982 19.1096 105.588 19.6627 105.049 20.0703C104.511 20.4778 103.843 20.6832 103.048 20.6832C102.254 20.6832 101.654 20.4115 101.219 19.8665C101.197 19.8341 101.176 19.8228 101.155 19.8341C101.132 19.8454 101.122 19.8665 101.122 19.8988V23.3938C101.122 23.4488 101.103 23.4941 101.066 23.5329C101.027 23.5717 100.982 23.5895 100.927 23.5895H99.0149C98.9599 23.5895 98.9146 23.5701 98.8758 23.5329C98.837 23.4941 98.8192 23.4488 98.8192 23.3938V12.3508C98.8192 12.2958 98.8386 12.2505 98.8758 12.2117C98.913 12.1729 98.9599 12.1551 99.0149 12.1551H100.927C100.982 12.1551 101.027 12.1745 101.066 12.2117C101.104 12.2505 101.122 12.2958 101.122 12.3508V12.8894C101.122 12.9217 101.134 12.9411 101.155 12.946C101.176 12.9525 101.198 12.9428 101.219 12.9217C101.677 12.3233 102.308 12.0241 103.115 12.0241C103.867 12.0241 104.517 12.2344 105.067 12.6533C105.617 13.0721 106.011 13.6576 106.251 14.4097C106.446 14.9644 106.545 15.6178 106.545 16.3698L106.544 16.3715ZM104.158 16.3391C104.158 15.6534 104.043 15.1083 103.815 14.7056C103.564 14.2382 103.162 14.0037 102.607 14.0037C102.106 14.0037 101.73 14.2382 101.48 14.7056C101.252 15.097 101.137 15.6485 101.137 16.3553C101.137 17.062 101.257 17.6508 101.496 18.0535C101.747 18.4885 102.117 18.7069 102.607 18.7069C103.097 18.7069 103.479 18.495 103.75 18.0696C104.022 17.6443 104.158 17.0685 104.158 16.3375V16.3391Z" fill="#F3AB37"/>
<path d="M108.536 9.24556V9.39435C108.536 9.41052 108.528 9.41699 108.513 9.41699H108.065C108.065 9.41699 108.056 9.42023 108.056 9.4267V10.8321C108.056 10.8483 108.048 10.8548 108.033 10.8548H107.855C107.839 10.8548 107.832 10.8467 107.832 10.8321V9.4267C107.832 9.4267 107.829 9.41699 107.823 9.41699H107.396C107.38 9.41699 107.373 9.40891 107.373 9.39435V9.24556C107.373 9.22938 107.381 9.22292 107.396 9.22292H108.513C108.53 9.22292 108.536 9.231 108.536 9.24556Z" fill="white"/>
<path d="M109.899 9.22131H110.077C110.094 9.22131 110.1 9.22939 110.1 9.24395V10.8322C110.1 10.8483 110.092 10.8548 110.077 10.8548H109.899C109.883 10.8548 109.877 10.8467 109.877 10.8322V9.63696C109.877 9.63696 109.877 9.62887 109.872 9.62725C109.869 9.62725 109.867 9.62725 109.865 9.6321L109.532 10.1416C109.526 10.1513 109.516 10.1561 109.505 10.1561H109.416C109.405 10.1561 109.396 10.1513 109.388 10.1416L109.052 9.63696C109.052 9.63696 109.049 9.63049 109.045 9.6321C109.042 9.6321 109.041 9.63696 109.041 9.64181V10.8322C109.041 10.8483 109.033 10.8548 109.018 10.8548H108.84C108.824 10.8548 108.817 10.8467 108.817 10.8322V9.24395C108.817 9.22778 108.826 9.22131 108.84 9.22131H109.018C109.031 9.22131 109.039 9.22616 109.045 9.23586L109.455 9.84721C109.455 9.84721 109.458 9.84882 109.461 9.84882C109.464 9.84882 109.466 9.84882 109.468 9.84721L109.874 9.23586C109.882 9.22616 109.891 9.22131 109.901 9.22131H109.899Z" fill="white"/>
</g>
<defs>
<clipPath id="clip0_4043_5196">
<rect width="110" height="27.2097" fill="white" transform="translate(0.0999756 2)"/>
</clipPath>
</defs>
</svg>
